<?xml version="1.0" encoding="utf-8"?>
<!-- Generator: Adobe Illustrator 21.0.2, SVG Export Plug-In . SVG Version: 6.00 Build 0)  -->
<svg version="1.1" id="SCENE_x5F_1" xmlns="http://www.w3.org/2000/svg" xmlns:xlink="http://www.w3.org/1999/xlink" x="0px"
	 y="0px" viewBox="0 0 100 100" style="enable-background:new 0 0 100 100;" xml:space="preserve">
<style type="text/css">
	.st0{fill:#1E560B;}
	.st1{fill:#64566D;}
	.st2{fill:#F20A0A;}
	.st3{fill:#103975;}
	.st4{fill:#FFFFFF;}
</style>
<rect id="BACKGROUND_grass" y="0" class="st0" width="100" height="100"/>
<path id="ROAD_asphalt" class="st1" d="M2.1,50.2c0-18.5,19.1-25.1,33.9-16.6c4.9,2.8,9.3,6,13.8,10.5c0.2,0.2,0.3,0.2,0.5,0
	c7-7,18.8-15.2,31.1-13.5C87.3,32.4,98,36.3,98,49.2c0,14.5-17.6,28.3-35,17.7c-4.4-2.7-8.2-6.4-12.7-11c-0.2-0.2-0.3-0.2-0.6,0
	c-5.1,5.1-10.6,10.7-17.3,13C18.6,73.7,2.1,70.6,2.1,50.2z M13.6,50.2c0.4,8.9,7.3,13.1,14.6,11.5c6.3-1.4,11.6-6.9,16.1-11.6
	c0.2-0.2,0.1-0.2,0-0.3c-3.9-3.7-7.8-8.1-12.6-10.4C22.4,35,13.6,41.5,13.6,50.2z M86.4,49.9c-0.3-8.6-7.1-13.3-14.9-11.5
	c-6.2,1.4-11.4,7-15.8,11.5c-0.2,0.2-0.1,0.2,0,0.3c5.5,5.1,11.9,13.2,20.7,11.7C82.1,60.9,86.4,55.9,86.4,49.9z"/>
<path id="OBSTACLE" class="st2" d="M50.8,42.4h-1.5c-0.8,0-1.5-0.7-1.5-1.5v-1.6c0-0.8,0.7-1.5,1.5-1.5h1.5c0.8,0,1.5,0.7,1.5,1.5
	v1.6C52.3,41.8,51.6,42.4,50.8,42.4z"/>
<path id="OBSTACLE_2_" class="st2" d="M10.6,32.8H9.1c-0.8,0-1.5-0.7-1.5-1.5v-1.6c0-0.8,0.7-1.5,1.5-1.5h1.5
	c0.8,0,1.5,0.7,1.5,1.5v1.6C12.1,32.2,11.4,32.8,10.6,32.8z"/>
<path id="OBSTACLE_1_" class="st3" d="M50.8,62.2h-1.5c-0.8,0-1.5-0.7-1.5-1.5v-1.6c0-0.8,0.7-1.5,1.5-1.5h1.5
	c0.8,0,1.5,0.7,1.5,1.5v1.6C52.3,61.6,51.5,62.2,50.8,62.2z"/>
<circle id="START" class="st4" cx="45.9" cy="45.6" r="1" style="display:none"/>
<path id="OBSTACLE_3_" class="st3" d="M95.8,66.8h-1.5c-0.8,0-1.5-0.7-1.5-1.5v-1.6c0-0.8,0.7-1.5,1.5-1.5h1.5
	c0.8,0,1.5,0.7,1.5,1.5v1.6C97.3,66.2,96.6,66.8,95.8,66.8z"/>
</svg>
