<?xml version="1.0" encoding="utf-8"?>
<!-- Generator: Adobe Illustrator 21.0.2, SVG Export Plug-In . SVG Version: 6.00 Build 0)  -->
<svg version="1.1" id="SCENE_x5F_1" xmlns="http://www.w3.org/2000/svg" xmlns:xlink="http://www.w3.org/1999/xlink" x="0px"
	 y="0px" viewBox="0 0 1024 1024" style="enable-background:new 0 0 1024 1024;" xml:space="preserve">
<style type="text/css">
	.st0{fill:#64566D;}
	.st1{display:none;fill:#FFFFFF;}
	.st2{fill:#FFFFFF;}
</style>
<rect id="BACKGROUND_grass" width="1024" height="1024"/>
<g id="ROAD">
	<path id="TRACK_asphalt" class="st0" d="M126.1,515.8c0-148,153.6-200.8,272-132.8c39.2,22.4,74.4,48,110.4,84
		c1.6,1.6,2.4,1.6,4,0c56-56,150.4-121.6,248.8-108c47.2,14.4,132.8,45.6,132.8,148.8c0,116-140.8,226.4-280,141.6
		c-35.2-21.6-65.6-51.2-101.6-88c-1.6-1.6-2.4-1.6-4.8,0c-40.8,40.8-84.8,85.6-138.4,104C258,703.7,126.1,678.9,126.1,515.8z
		 M218.8,515.8c3.2,71.2,58.4,104.8,116.8,92c50.4-11.2,92.8-55.2,128.8-92.8c1.6-1.6,0.8-1.6,0-2.4
		c-31.2-29.6-62.4-64.8-100.8-83.2C288.4,394.2,218.8,446.2,218.8,515.8z M800.4,513.4c-2.4-68.8-56.8-106.4-119.2-92
		c-49.6,11.2-91.2,56-126.4,92c-1.6,1.6-0.8,1.6,0,2.4c44,40.8,95.2,105.6,165.6,93.6C766,601.4,800.4,561.4,800.4,513.4z"/>
	<circle id="START" class="st1" cx="471.5" cy="475.1" r="8"/>
</g>
<g id="OBSTACLES">
	<path id="1_obstacle" class="st2" d="M516.4,453.4h-12c-6.4,0-12-5.6-12-12v-12.8c0-6.4,5.6-12,12-12h12c6.4,0,12,5.6,12,12v12.8
		C528.4,448.6,522,453.4,516.4,453.4z"/>
	<path id="2_obstacle" class="st2" d="M194.8,376.6h-12c-6.4,0-12-5.6-12-12v-12.8c0-6.4,5.6-12,12-12h12c6.4,0,12,5.6,12,12v12.8
		C206.8,371.8,201.2,376.6,194.8,376.6z"/>
	<path id="3_obstacle" class="st2" d="M516.4,611.8h-12c-6.4,0-12-5.6-12-12V587c0-6.4,5.6-12,12-12h12c6.4,0,12,5.6,12,12v12.8
		C528.4,607,521.2,611.8,516.4,611.8z"/>
	<path id="4_obstacle" class="st2" d="M876.4,648.6h-12c-6.4,0-12-5.6-12-12v-12.8c0-6.4,5.6-12,12-12h12c6.4,0,12,5.6,12,12v12.8
		C888.3,643.8,881.9,648.6,876.4,648.6z"/>
</g>
</svg>
