<?xml version="1.0" encoding="utf-8"?>
<!-- Generator: Adobe Illustrator 21.0.2, SVG Export Plug-In . SVG Version: 6.00 Build 0)  -->
<svg version="1.1" id="SCENE_x5F_1" xmlns="http://www.w3.org/2000/svg" xmlns:xlink="http://www.w3.org/1999/xlink" x="0px"
	 y="0px" viewBox="0 0 1024 1024" style="enable-background:new 0 0 1024 1024;" xml:space="preserve">
<style type="text/css">
	.st0{fill:#64566D;}
	.st1{fill:#FFFFFF;}
	.st2{fill:#000000;}
</style>
<rect id="BACKGROUND_grass" y="0" width="1024" height="1024"/>
<g id="ROAD">
	<path id="TRACK_asphalt" class="st0" d="M633.7,961.4c-99.2,0-189.1-4.4-267.5-13c-68.4-7.5-128.5-18.4-178.5-32.1
		c-86.1-23.7-115.1-48.5-120.1-53.2l-2.5-2.4l-1.8-3c-3.4-5.4-32.2-53.8-4.5-88.5c13.6-17.1,36.8-25,69-23.8
		c31.1,1.2,71.9,10.7,124.5,29c88.9,30.9,177,52.6,247.9,61.1c77.3,9.3,107.5-0.7,113.5-5.7c-0.3-1.8-1.7-5.8-5.6-11.8
		c-9.3-14.4-49.8-51.8-225.4-88.5c-94-19.6-182.8-29.7-194.4-30.9c-51.7-0.6-80.3-19.7-95.2-35.8c-59.1-63.7-28.6-203.5,19.5-313.1
		C145.7,274.4,190.2,205,238,154.5C295.1,94,355,62.2,411.5,62.6c37.3,0.2,80.2,14.6,114.8,38.4c40,27.6,64.2,63.8,68.2,102
		c5.9,56.3-33.3,102.4-57.2,124.9l-2,1.9c31.9,9,68.9,22.6,104.9,35.9c33.7,12.4,68.6,25.3,97.1,33.5c24,6.9,37.3,8.7,44.4,9
		c-1.5-9-7.2-23.3-24-44.6c-18.1-22.9-42.2-45.3-59.9-61.7c-6.1-5.7-11.4-10.6-15.9-15c-12.8-12.6-17.2-30.3-11.9-48.6
		c8.3-28.6,39-54,74.6-61.7c20.1-4.3,41-2.9,60.5,4c21.9,7.7,42,22.2,59.6,42.9c38.3,45,73,103,93.1,155.2
		c27.7,72.3,25.6,129.3-6.2,165c-14.6,16.4-32.4,23.3-67.9,26.2c-33,2.7-87,2.7-192.6-0.1c-51.7-1.4-103.9-3.1-155.2-5.1l-10.2-0.4
		L417.6,462.7l-0.9-1c-0.1-0.1-12.9-14.5-29.7-27.1c-19.8-14.9-33.1-18.5-38.5-17c-4.3,1.2-10.9,10.1-15.1,31.3
		c-5.5,27.9-2.2,50,10.1,67.5c21.6,30.7,64.9,38,66.8,38.3l2.9,0.4l2.6,1l284,102.6c91.1,0.5,158.2,3.6,199.6,9.3
		c19.6,2.7,34.1,6,44.4,10.1c21.1,8.5,26.9,21.9,27.9,31.8c1.5,12.9-3.3,25.2-13.7,35.8c-11.7,11.9-31.6,22.4-60.6,32.3
		c-46.5,15.8-63.7,27.7-69.8,33.3c8.2,6.2,27.7,14.5,44.7,18.6l1,0.3c0.8,0.2,21,5.9,41.1,14.4c15.6,6.5,57,23.9,52.5,57.5
		c-2,14.9-12.3,26.5-30.7,34.4c-12.3,5.2-29.3,9.5-52.2,13c-48.2,7.4-124.2,11.5-225.9,12.2C649.8,961.4,641.7,961.4,633.7,961.4z
		 M107.8,824.9c8.5,5.9,37.8,23.7,104.2,41c74.5,19.4,212.2,42.1,445.7,40.5c84.5-0.6,150.6-3.5,196.4-8.7
		c13.9-1.6,24.8-3.2,33.4-4.8c-9-3.5-19-7-28.7-9.7c-3.5-0.9-20.5-5.3-37.8-12.9c-32.8-14.5-49.9-33.5-51-56.4
		c-0.9-18.8,9.3-36,30.3-51.1c17.5-12.6,43.5-24.7,79.4-36.8c3.8-1.3,7.2-2.5,10.3-3.7c-5.8-0.8-12.5-1.5-20.3-2.3
		c-40.4-3.8-99.3-5.9-174.8-6.2l-4.8,0l-290.6-105c-14-2.6-68.7-15.2-100.6-60.1c-21.4-30.1-27.9-67.2-19.4-110.3
		c4-20,10.1-35.6,18.7-47.8c9.3-13.1,21.7-22.1,36-25.9c25.3-6.8,54.5,2.2,86.8,26.9c18.2,13.9,32.2,28.8,35.9,32.9l91.4,85.7
		c47.7,1.8,96.2,3.4,144.2,4.7c102.1,2.7,156.1,2.8,186.6,0.2c26.2-2.2,29.3-5.7,31.4-8c16.9-19,15.5-57.6-4.1-108.6
		c-21.1-55-57-108-83.6-139.2c-26.8-31.5-52.7-32.6-69.6-28c-16.1,4.4-26,14.4-29.3,19.9c3.3,3.1,7.1,6.6,11.3,10.5
		c19,17.6,45,41.7,65.7,68c28.1,35.6,39.7,66.7,35.5,95.1c-2,13.2-9.3,24.2-20.6,31c-8.8,5.2-19.5,7.6-32.3,7.6
		c-35.4,0-87.3-18.3-162.2-45.8c-46.5-17.1-94.5-34.8-127.2-41c-16.1-3-28.1-6.5-36.7-10.4c-21.5-9.9-24.7-25.1-24.7-33.3
		c-0.1-28.6,34-39.1,48.6-43.6c8.9-2.7,17.6-4.9,23.8-6.3c16.4-16.6,37.9-44.5,34.9-73.9c-2.3-21.7-18.6-44.4-44.7-62.4
		c-25.5-17.5-57.6-28.5-83.9-28.7c-0.2,0-0.4,0-0.6,0c-93.4,0-193.8,131.7-247.7,254.4C138.2,428,121.9,484.5,117,531
		c-4.7,44.6,1.1,78.1,16.3,94.5c11,11.8,30.5,18.1,56.6,18.2l1.4,0l1.4,0.1c4,0.4,98.1,10.4,201.2,31.9c61.1,12.8,112.6,27,153,42.3
		c55.2,20.9,90.3,43.9,107.4,70.3c24.4,37.8,12.5,63.2,3.3,74.9c-22.5,28.6-75.9,37.5-163.2,27.1c-74.9-8.9-167.3-31.6-260.2-63.9
		c-105.2-36.5-129.4-24.8-132.3-23C101,807,103.5,816.5,107.8,824.9z"/>
	<circle id="START" class="st2" cx="471.5" cy="475.1" r="8"/>
</g>
<g id="OBSTACLES">
	<path id="1_obstacle" class="st1" d="M410.6,131.7c-38.7,0-83,26.5-128.1,76.5c-39.9,44.2-78.7,106-106.6,169.4
		c-24.1,54.8-40,109.8-44.7,154.8c-4.2,39.9,0.4,70.2,12.6,83.4c8.1,8.7,24.5,13.6,46.3,13.7l2.1,0l2.1,0.2
		c4,0.4,98.7,10.5,202.6,32.2c61.9,12.9,114.1,27.3,155.1,42.9c58.2,22,95.5,46.8,114.3,75.8c30.2,46.9,11.8,79.5,2.5,91.4
		c-6.4,8.1-14.6,14.9-24.7,20.3c4.5,0,9,0,13.6-0.1c67.3-0.5,122.7-2.4,165.4-5.8c-2.5-1-5.1-2.1-7.7-3.2
		c-38.1-16.9-58.1-40-59.4-68.7c-0.8-16.4,4.9-40.7,36.2-63.3c9.5-6.9,21.3-13.6,35.5-20.1c-35.7-1.9-80.1-3-132.8-3.3l-7.2,0
		L395.7,622.3c-18.3-3.5-74.5-17.9-108.4-65.6c-23.8-33.4-31.1-74.2-21.7-121.3c4.4-22,11.3-39.4,21.1-53.3
		c11.2-15.8,26.4-26.7,43.8-31.4c6.6-1.8,13.5-2.7,20.6-2.7c24.3,0,50.7,10.8,78.6,32c18.5,14.1,32.9,29.3,37.4,34.2l87.2,81.7
		c45.9,1.7,92.6,3.3,138.8,4.5c53.7,1.4,92.6,2.1,122.5,2.1c27.6,0,48-0.6,62.5-1.8c15.6-1.3,20.8-3,22.2-3.5
		c12.6-14.6,10-49.6-7-93.9c-20.5-53.3-55.4-104.8-81.2-135.1c-14.1-16.6-28.9-25-44-25c-3.7,0-7.4,0.5-11.1,1.5
		c-5.2,1.4-9.5,3.6-12.7,5.8c0.2,0.2,0.7,0.6,0.7,0.6c19.3,17.9,45.8,42.4,67.2,69.6c30.6,38.8,43.2,73.5,38.3,105.9
		c-2.6,17.5-12.3,32.1-27.4,41.1c-10.9,6.5-23.8,9.6-39.5,9.6c-37.5,0-88.1-17.6-167.1-46.7c-45.9-16.9-93.4-34.4-125-40.4
		c-17.2-3.3-30.3-7-40-11.5c-29.7-13.7-32.9-36.8-33-46.2c0-12,4.3-29.1,25.2-42.7c12-7.9,25.4-12,33.4-14.4
		c7.5-2.3,14.8-4.2,20.6-5.6c12.7-13.5,30.4-36.8,28.1-59.6c-1.8-17.3-16.2-36.8-38.7-52.2c-23.3-16-52.4-26.1-76-26.2L410.6,131.7z
		"/>
	<path id="2_obstacle" class="st1" d="M118.9,815.3c10.4,6.6,38.7,21.8,96.6,36.9c32.2,8.4,76.7,17.5,136.5,24.9
		c-39.8-10.3-81.1-22.8-122.5-37.2c-60.5-21-92.5-25.4-108.7-25.4c-0.8,0-1.6,0-2.3,0C118.7,814.7,118.8,815,118.9,815.3z"/>
</g>
</svg>
