<?xml version="1.0" encoding="utf-8"?>
<!-- Generator: Adobe Illustrator 21.0.2, SVG Export Plug-In . SVG Version: 6.00 Build 0)  -->
<svg version="1.1" id="SCENE_x5F_1" xmlns="http://www.w3.org/2000/svg" xmlns:xlink="http://www.w3.org/1999/xlink" x="0px"
	 y="0px" viewBox="0 0 1024 1024" style="enable-background:new 0 0 1024 1024;" xml:space="preserve">
<style type="text/css">
	.st0{fill:#FFFFFF;}
	.st1{fill:#64566D;}
	.st2{display:none;fill:#000000;}
</style>
<rect id="BACKGROUND_grass" y="0" width="1024" height="1024"/>
<g id="OBSTACLES">
	<path id="1_obstacle" class="st0" d="M355,512c0,27.3-11.1,52.1-29,70c-17.9,17.9-42.7,29-70,29s-52.1-11.1-70-29
		c-17.9-17.9-29-42.7-29-70s11.1-52.1,29-70s42.7-29,70-29s52.1,11.1,70,29S355,484.7,355,512z"/>
	<path id="2_obstacle" class="st0" d="M867,512c0,27.3-11.1,52.1-29,70c-17.9,17.9-42.7,29-70,29s-52.1-11.1-70-29
		c-17.9-17.9-29-42.7-29-70s11.1-52.1,29-70c17.9-17.9,42.7-29,70-29s52.1,11.1,70,29C855.9,459.9,867,484.7,867,512z"/>
	<path id="3_obstacle" class="st0" d="M538.8,512c0,7.4-3,14.1-7.8,18.9s-11.5,7.8-18.9,7.8s-14.1-3-18.9-7.8
		s-7.8-11.5-7.8-18.9s3-14.1,7.8-18.9s11.5-7.8,18.9-7.8s14.1,3,18.9,7.8S538.8,504.6,538.8,512z"/>
	<path id="4_obstacle" class="st0" d="M611,256c0,27.3-11.1,52.1-29,70c-17.9,17.9-42.7,29-70,29s-52.1-11.1-70-29
		s-29-42.7-29-70s11.1-52.1,29-70s42.7-29,70-29s52.1,11.1,70,29C599.9,203.9,611,228.7,611,256z"/>
	<path id="5_obstacle" class="st0" d="M611,768c0,27.3-11.1,52.1-29,70c-17.9,17.9-42.7,29-70,29s-52.1-11.1-70-29
		c-17.9-17.9-29-42.7-29-70s11.1-52.1,29-70c17.9-17.9,42.7-29,70-29s52.1,11.1,70,29C599.9,715.9,611,740.7,611,768z"/>
</g>
<g id="ROAD">
	<path id="TRACK_asphalt" class="st1" d="M864,32H160C89.6,32,32,89.6,32,160v704c0,70.4,57.6,128,128,128h704
		c70.4,0,128-57.6,128-128V160C992,89.6,934.4,32,864,32z M171.6,107.7h680.8c3.1,0,6.1,0.2,9.1,0.7L548.8,421.2
		c-11.3-4.6-23.8-7.1-36.8-7.1s-25.4,2.5-36.8,7.1L162.5,108.4C165.5,108,168.5,107.7,171.6,107.7z M550.2,512
		c0,21.1-17.1,38.2-38.2,38.2s-38.2-17.1-38.2-38.2s17.1-38.2,38.2-38.2S550.2,490.9,550.2,512z M108.4,861.5c-0.4-3-0.7-6-0.7-9.1
		V171.6c0-3.1,0.2-6.1,0.7-9.1l312.8,312.8c-4.6,11.3-7.1,23.8-7.1,36.8s2.5,25.4,7.1,36.8L108.4,861.5z M852.4,916.3H171.6
		c-3.1,0-6.1-0.2-9.1-0.7l312.8-312.8c11.3,4.6,23.8,7.1,36.8,7.1s25.4-2.5,36.8-7.1l312.8,312.8C858.5,916,855.5,916.3,852.4,916.3
		z M916.3,852.4c0,3.1-0.2,6.1-0.7,9.1L602.8,548.8c4.6-11.3,7.1-23.8,7.1-36.8s-2.5-25.4-7.1-36.8l312.8-312.8c0.4,3,0.7,6,0.7,9.1
		V852.4z"/>
	<circle id="START" cx="439.5" cy="441.1" r="8" class="st2"/>
</g>
</svg>
