<?xml version="1.0" encoding="utf-8"?>
<!-- Generator: Adobe Illustrator 21.0.2, SVG Export Plug-In . SVG Version: 6.00 Build 0)  -->
<svg version="1.1" id="SCENE_x5F_1" xmlns="http://www.w3.org/2000/svg" xmlns:xlink="http://www.w3.org/1999/xlink" x="0px"
	 y="0px" viewBox="0 0 1024 1024" style="enable-background:new 0 0 1024 1024;" xml:space="preserve">
<style type="text/css">
	.st0{fill:#FFFFFF;}
	.st1{fill:#64566D;}
	.st2{display:none;fill:#000000;}
</style>
<rect id="BACKGROUND_grass" y="0" width="1024" height="1024"/>
<g id="OBSTACLES">
	<path id="1_obstacle" class="st0" d="M377.8,512c0,23.3-9.5,44.5-24.8,59.8c-15.3,15.3-36.5,24.8-59.8,24.8
		s-44.5-9.5-59.8-24.8c-15.3-15.3-24.8-36.5-24.8-59.8c0-23.3,9.5-44.5,24.8-59.8c15.3-15.3,36.5-24.8,59.8-24.8s44.5,9.5,59.8,24.8
		C368.3,467.5,377.8,488.7,377.8,512z"/>
	<path id="2_obstacle" class="st0" d="M815.4,512c0,23.3-9.5,44.5-24.8,59.8c-15.3,15.3-36.5,24.8-59.8,24.8
		c-23.3,0-44.5-9.5-59.8-24.8c-15.3-15.3-24.8-36.5-24.8-59.8c0-23.3,9.5-44.5,24.8-59.8c15.3-15.3,36.5-24.8,59.8-24.8
		c23.3,0,44.5,9.5,59.8,24.8C805.9,467.5,815.4,488.7,815.4,512z"/>
	<path id="3_obstacle" class="st0" d="M534.9,512c0,6.3-2.6,12.1-6.7,16.2c-4.1,4.1-9.8,6.7-16.2,6.7s-12.1-2.6-16.2-6.7
		c-4.1-4.1-6.7-9.8-6.7-16.2s2.6-12.1,6.7-16.2s9.8-6.7,16.2-6.7c6.3,0,12.1,2.6,16.2,6.7S534.9,505.7,534.9,512z"/>
	<path id="4_obstacle" class="st0" d="M596.6,293.2c0,23.3-9.5,44.5-24.8,59.8c-15.3,15.3-36.5,24.8-59.8,24.8
		c-23.3,0-44.5-9.5-59.8-24.8c-15.3-15.3-24.8-36.5-24.8-59.8s9.5-44.5,24.8-59.8c15.3-15.3,36.5-24.8,59.8-24.8
		c23.3,0,44.5,9.5,59.8,24.8C587.1,248.7,596.6,269.9,596.6,293.2z"/>
	<path id="5_obstacle" class="st0" d="M596.6,730.8c0,23.3-9.5,44.5-24.8,59.8c-15.3,15.3-36.5,24.8-59.8,24.8
		c-23.3,0-44.5-9.5-59.8-24.8c-15.3-15.3-24.8-36.5-24.8-59.8c0-23.3,9.5-44.5,24.8-59.8c15.3-15.3,36.5-24.8,59.8-24.8
		c23.3,0,44.5,9.5,59.8,24.8C587.1,686.3,596.6,707.5,596.6,730.8z"/>
</g>
<g id="ROAD">
	<path id="TRACK_asphalt" class="st1" d="M812.8,101.8H211.2c-60.2,0-109.4,49.2-109.4,109.4v601.7c0,60.2,49.2,109.4,109.4,109.4
		h601.7c60.2,0,109.4-49.2,109.4-109.4V211.2C922.2,151,873,101.8,812.8,101.8z M221.1,166.5h581.8c2.6,0,5.2,0.2,7.8,0.6
		L543.5,434.4c-9.7-3.9-20.3-6.1-31.5-6.1s-21.7,2.1-31.5,6.1L213.3,167.1C215.9,166.7,218.4,166.5,221.1,166.5z M544.6,512
		c0,18-14.6,32.6-32.6,32.6S479.4,530,479.4,512s14.6-32.6,32.6-32.6C530,479.4,544.6,494,544.6,512z M167.1,810.7
		c-0.3-2.6-0.6-5.1-0.6-7.8V221.1c0-2.6,0.2-5.2,0.6-7.8l267.3,267.3c-3.9,9.7-6.1,20.3-6.1,31.5s2.1,21.7,6.1,31.5L167.1,810.7z
		 M802.9,857.5H221.1c-2.6,0-5.2-0.2-7.8-0.6l267.3-267.3c9.7,3.9,20.3,6.1,31.5,6.1s21.7-2.1,31.5-6.1l267.3,267.3
		C808.1,857.3,805.6,857.5,802.9,857.5z M857.5,802.9c0,2.6-0.2,5.2-0.6,7.8L589.6,543.5c3.9-9.7,6.1-20.3,6.1-31.5
		s-2.1-21.7-6.1-31.5l267.3-267.3c0.3,2.6,0.6,5.1,0.6,7.8V802.9z"/>
	<circle id="START" cx="450" cy="451.4" r="6.8" class="st2"/>
</g>
</svg>
