<?xml version="1.0" encoding="utf-8"?>
<!-- Generator: Adobe Illustrator 21.0.2, SVG Export Plug-In . SVG Version: 6.00 Build 0)  -->
<svg version="1.1" id="SCENE_x5F_1" xmlns="http://www.w3.org/2000/svg" xmlns:xlink="http://www.w3.org/1999/xlink" x="0px"
	 y="0px" viewBox="0 0 128 128" style="enable-background:new 0 0 128 128;" xml:space="preserve">
<style type="text/css">
	.st0{fill:#64566D;}
	.st1{display:none;fill:#FFFFFF;}
	.st2{fill:#F20A0A;}
	.st3{fill:#103975;}
</style>
<path id="ROAD_asphalt" class="st0" d="M16,64.7c0-18.5,19.2-25.1,34-16.6c4.9,2.8,9.3,6,13.8,10.5c0.2,0.2,0.3,0.2,0.5,0
	c7-7,18.8-15.2,31.1-13.5c5.9,1.8,16.6,5.7,16.6,18.6c0,14.5-17.6,28.3-35,17.7c-4.4-2.7-8.2-6.4-12.7-11c-0.2-0.2-0.3-0.2-0.6,0
	c-5.1,5.1-10.6,10.7-17.3,13C32.5,88.2,16,85.1,16,64.7z M27.6,64.7c0.4,8.9,7.3,13.1,14.6,11.5c6.3-1.4,11.6-6.9,16.1-11.6
	c0.2-0.2,0.1-0.2,0-0.3c-3.9-3.7-7.8-8.1-12.6-10.4C36.3,49.5,27.6,56,27.6,64.7z M100.3,64.4c-0.3-8.6-7.1-13.3-14.9-11.5
	c-6.2,1.4-11.4,7-15.8,11.5c-0.2,0.2-0.1,0.2,0,0.3c5.5,5.1,11.9,13.2,20.7,11.7C96,75.4,100.3,70.4,100.3,64.4z"/>
<circle id="START" class="st1" cx="59.9" cy="60.1" r="1"/>
<path id="OBSTACLE_x5F_4" class="st2" d="M64.8,56.9h-1.5c-0.8,0-1.5-0.7-1.5-1.5v-1.6c0-0.8,0.7-1.5,1.5-1.5h1.5
	c0.8,0,1.5,0.7,1.5,1.5v1.6C66.3,56.3,65.5,56.9,64.8,56.9z"/>
<path id="OBSTACLE_x5F_3" class="st2" d="M24.6,47.3h-1.5c-0.8,0-1.5-0.7-1.5-1.5v-1.6c0-0.8,0.7-1.5,1.5-1.5h1.5
	c0.8,0,1.5,0.7,1.5,1.5v1.6C26.1,46.7,25.4,47.3,24.6,47.3z"/>
<path id="OBSTACLE_x5F_2" class="st3" d="M64.8,76.7h-1.5c-0.8,0-1.5-0.7-1.5-1.5v-1.6c0-0.8,0.7-1.5,1.5-1.5h1.5
	c0.8,0,1.5,0.7,1.5,1.5v1.6C66.3,76.1,65.4,76.7,64.8,76.7z"/>
<path id="OBSTACLE_x5F_1" class="st3" d="M109.8,81.3h-1.5c-0.8,0-1.5-0.7-1.5-1.5v-1.6c0-0.8,0.7-1.5,1.5-1.5h1.5
	c0.8,0,1.5,0.7,1.5,1.5v1.6C111.3,80.7,110.5,81.3,109.8,81.3z"/>
</svg>
