<?xml version="1.0" encoding="utf-8"?>
<!-- Generator: Adobe Illustrator 21.0.2, SVG Export Plug-In . SVG Version: 6.00 Build 0)  -->
<svg version="1.1" id="SCENE_x5F_1" xmlns="http://www.w3.org/2000/svg" xmlns:xlink="http://www.w3.org/1999/xlink" x="0px"
	 y="0px" viewBox="0 0 1024 1024" style="enable-background:new 0 0 1024 1024;" xml:space="preserve">
<style type="text/css">
	.st0{fill:#FFFFFF;}
	.st1{fill:#64566D;}
	.st2{display:none;}
</style>
<rect id="BACKGROUND_grass" y="0" width="1024" height="1024"/>
<g id="OBSTACLES">
	<path id="_x33__x5F_obstacle" class="st0" d="M534.9,512c0,6.3-2.6,12.1-6.7,16.2c-4.1,4.1-9.8,6.7-16.2,6.7s-12.1-2.6-16.2-6.7
		c-4.1-4.1-6.7-9.8-6.7-16.2s2.6-12.1,6.7-16.2s9.8-6.7,16.2-6.7c6.3,0,12.1,2.6,16.2,6.7S534.9,505.7,534.9,512z"/>
	<path id="_x33__x5F_obstacle_2_" class="st0" d="M262.6,185.6h498.6c2.2,0,4.5,0.2,6.7,0.5l-229,229.1c-8.3-3.3-17.4-5.2-27-5.2
		c-9.6,0-18.6,1.8-27,5.2l-229-229.1C258.2,185.8,260.3,185.6,262.6,185.6z M706.7,211.2H317.2l175.1,175.1c6.4-1.3,13-2,19.7-2
		c6.6,0,13.2,0.7,19.6,2L706.7,211.2z"/>
	<path id="_x33__x5F_obstacle_3_" class="st0" d="M186.1,767.9c-0.3-2.2-0.5-4.4-0.5-6.7V262.6c0-2.2,0.2-4.5,0.5-6.7L415.2,485
		c-3.3,8.3-5.2,17.4-5.2,27s1.8,18.6,5.2,27L186.1,767.9z M211.2,706.7l175.1-175c-1.3-6.4-2-13-2-19.6c0-6.6,0.7-13.2,2-19.6
		L211.2,317.2V706.7z"/>
	<path id="_x33__x5F_obstacle_4_" class="st0" d="M761.2,838.3H262.7c-2.2,0-4.5-0.2-6.7-0.5l229-229c8.3,3.3,17.4,5.2,27,5.2
		c9.6,0,18.6-1.8,27-5.2l229,229C765.7,838.1,763.5,838.3,761.2,838.3z M706.8,812.7L531.7,637.6c-6.4,1.3-13,2-19.6,2
		c-6.6,0-13.2-0.7-19.6-2L317.3,812.7H706.8z"/>
	<path id="_x33__x5F_obstacle_5_" class="st0" d="M838.3,761.2c0,2.2-0.2,4.5-0.5,6.7l-229.1-229c3.3-8.3,5.2-17.4,5.2-27
		c0-9.6-1.8-18.6-5.2-27l229.1-229.1c0.3,2.2,0.5,4.4,0.5,6.7L838.3,761.2L838.3,761.2z M812.7,706.6V317.2L637.6,492.3
		c1.3,6.4,2,13,2,19.7c0,6.6-0.7,13.2-2,19.6L812.7,706.6z"/>
</g>
<g id="ROAD">
	<path id="TRACK_asphalt" class="st1" d="M812.8,101.8H211.2c-60.2,0-109.4,49.2-109.4,109.4v601.7c0,60.2,49.2,109.4,109.4,109.4
		h601.7c60.2,0,109.4-49.2,109.4-109.4V211.2C922.2,151,873,101.8,812.8,101.8z M221.1,166.5h581.8c2.6,0,5.2,0.2,7.8,0.6
		L543.5,434.4c-9.7-3.9-20.3-6.1-31.5-6.1s-21.7,2.1-31.5,6.1L213.3,167.1C215.9,166.7,218.4,166.5,221.1,166.5z M544.6,512
		c0,18-14.6,32.6-32.6,32.6S479.4,530,479.4,512s14.6-32.6,32.6-32.6S544.6,494,544.6,512z M167.1,810.7c-0.3-2.6-0.6-5.1-0.6-7.8
		V221.1c0-2.6,0.2-5.2,0.6-7.8l267.3,267.3c-3.9,9.7-6.1,20.3-6.1,31.5s2.1,21.7,6.1,31.5L167.1,810.7z M802.9,857.5H221.1
		c-2.6,0-5.2-0.2-7.8-0.6l267.3-267.3c9.7,3.9,20.3,6.1,31.5,6.1s21.7-2.1,31.5-6.1l267.3,267.3
		C808.1,857.3,805.6,857.5,802.9,857.5z M857.5,802.9c0,2.6-0.2,5.2-0.6,7.8L589.6,543.5c3.9-9.7,6.1-20.3,6.1-31.5
		s-2.1-21.7-6.1-31.5l267.3-267.3c0.3,2.6,0.6,5.1,0.6,7.8L857.5,802.9L857.5,802.9z"/>
	<circle id="START" class="st2" cx="450" cy="451.4" r="6.8"/>
</g>
</svg>
